<?xml version="1.0" standalone="no"?>
<!DOCTYPE svg PUBLIC "-//W3C//DTD SVG 20010904//EN"
 "http://www.w3.org/TR/2001/REC-SVG-20010904/DTD/svg10.dtd">
<svg version="1.0" xmlns="http://www.w3.org/2000/svg"
 width="512.000000pt" height="512.000000pt" viewBox="0 0 512.000000 512.000000"
 preserveAspectRatio="xMidYMid meet">
<metadata>
Created by potrace 1.14, written by Peter Selinger 2001-2017
</metadata>
<g transform="translate(0.000000,512.000000) scale(0.100000,-0.100000)"
fill="#000000" stroke="none">
<path d="M0 2560 l0 -2560 2560 0 2560 0 0 2560 0 2560 -2560 0 -2560 0 0
-2560z m1590 220 c0 -1414 0 -1405 46 -1517 28 -67 84 -133 140 -165 30 -16
54 -32 54 -36 0 -3 -18 -29 -40 -58 -79 -105 -184 -154 -345 -161 -85 -4 -108
-2 -156 16 -77 29 -132 80 -169 154 -62 127 -60 84 -58 1597 l3 1374 255 62
c140 35 258 63 263 63 4 1 7 -598 7 -1329z m1955 371 c268 -69 467 -256 555
-521 47 -143 50 -205 50 -1002 l0 -748 -265 0 -264 0 -3 753 c-3 695 -5 756
-22 807 -48 145 -116 225 -233 271 -50 20 -76 23 -188 24 -121 0 -135 -2 -200
-29 -99 -41 -173 -87 -227 -141 l-48 -47 0 -819 0 -819 -265 0 -265 0 0 1130
0 1130 191 -2 192 -3 46 -101 47 -101 59 54 c103 94 251 162 400 183 104 15
349 4 440 -19z"/>
</g>
</svg>
